<svg width="24" height="24" viewBox="0 0 24 24" fill="none" xmlns="http://www.w3.org/2000/svg">
<g id="file-type-wxml 1">
<path id="Vector" d="M16.09 8.925C14.2218 8.94664 12.4299 9.66939 11.0695 10.95C10.3867 11.5879 9.86332 12.3773 9.54167 13.2546C9.22002 14.1318 9.10905 15.0724 9.21771 16.0005C8.45571 15.906 7.76196 15.8025 7.06371 15.7432C6.81317 15.7148 6.55968 15.7577 6.33246 15.867C5.65746 16.2495 5.00496 16.6815 4.23246 17.1623C4.37346 16.5233 4.46496 15.9623 4.62696 15.4253C4.70123 15.2693 4.71141 15.0905 4.65532 14.9271C4.59923 14.7638 4.48135 14.6289 4.32696 14.5515C1.98696 12.9015 1.00071 10.4265 1.73871 7.881C2.0583 6.79198 2.65331 5.80377 3.46627 5.01182C4.27924 4.21987 5.2827 3.65095 6.37971 3.36C7.88136 2.86131 9.49938 2.8325 11.0178 3.27741C12.5363 3.72231 13.8829 4.61977 14.878 5.85C15.5709 6.73627 15.9921 7.80434 16.0907 8.925H16.09ZM7.11846 8.13375C7.11864 7.90104 7.02868 7.6773 6.86744 7.5095C6.70621 7.34169 6.48625 7.24287 6.25371 7.23375C6.13856 7.22904 6.02361 7.24717 5.9155 7.2871C5.80739 7.32704 5.70826 7.38798 5.62382 7.46642C5.53939 7.54486 5.47132 7.63925 5.42354 7.74413C5.37577 7.84901 5.34923 7.96231 5.34546 8.0775C5.34104 8.19282 5.35981 8.30786 5.40066 8.41579C5.4415 8.52373 5.50359 8.62237 5.58325 8.70587C5.66291 8.78937 5.75851 8.85604 5.8644 8.90193C5.97029 8.94781 6.08431 8.97198 6.19971 8.973C6.43246 8.98159 6.65924 8.89832 6.83113 8.74117C7.00302 8.58402 7.10622 8.36558 7.11846 8.133V8.13375ZM11.7992 7.23375C11.5666 7.23915 11.3452 7.33441 11.1813 7.49955C11.0174 7.66469 10.9238 7.88688 10.9202 8.1195C10.9228 8.23494 10.9482 8.34872 10.9949 8.45433C11.0416 8.55994 11.1087 8.6553 11.1923 8.73494C11.2759 8.81458 11.3744 8.87693 11.4821 8.91843C11.5899 8.95992 11.7048 8.97974 11.8202 8.97675C12.0515 8.97367 12.272 8.87885 12.4333 8.71316C12.5946 8.54748 12.6835 8.32449 12.6805 8.09325C12.6774 7.86202 12.5826 7.64147 12.4169 7.48015C12.2512 7.31882 12.0282 7.22992 11.797 7.233L11.7992 7.23375Z" fill="#FF6934"/>
<path id="Vector_2" d="M20.4697 21.0802C19.9142 20.7439 19.3123 20.4912 18.6832 20.3302C18.0536 20.3871 17.4308 20.5036 16.8232 20.6782C15.9135 20.7929 14.9896 20.705 14.1179 20.4206C13.2461 20.1362 12.4481 19.6625 11.781 19.0335C9.09221 16.5465 9.47621 12.7335 12.5872 10.695C13.9622 9.82395 15.6046 9.47651 17.2145 9.7161C18.8244 9.95569 20.2945 10.7663 21.3562 12C22.1882 13.0029 22.594 14.292 22.4865 15.5906C22.3789 16.8893 21.7666 18.0941 20.781 18.9465C20.181 19.4797 19.9635 19.9215 20.3497 20.6212C20.408 20.7686 20.4486 20.9225 20.4705 21.0795L20.4697 21.0802ZM13.443 14.277C13.6356 14.2777 13.8206 14.2018 13.9574 14.0661C14.0941 13.9303 14.1713 13.7459 14.172 13.5532C14.1727 13.3606 14.0968 13.1755 13.9611 13.0388C13.8253 12.9021 13.6409 12.8249 13.4482 12.8242C13.3528 12.8239 13.2583 12.8423 13.17 12.8785C13.0818 12.9147 13.0015 12.9679 12.9338 13.0351C12.7971 13.1708 12.7199 13.3553 12.7192 13.548C12.7185 13.7406 12.7944 13.9256 12.9301 14.0624C13.0658 14.1991 13.2503 14.2763 13.443 14.277ZM17.973 12.825C17.7867 12.8263 17.6081 12.8991 17.474 13.0284C17.3399 13.1576 17.2605 13.3334 17.2522 13.5195C17.2479 13.6618 17.2861 13.8022 17.3619 13.9227C17.4377 14.0432 17.5478 14.1383 17.6779 14.196C17.8081 14.2537 17.9525 14.2713 18.0927 14.2465C18.2329 14.2218 18.3626 14.1558 18.4651 14.057C18.5676 13.9582 18.6384 13.8311 18.6684 13.6919C18.6983 13.5527 18.6861 13.4077 18.6333 13.2755C18.5805 13.1433 18.4894 13.0298 18.3718 12.9495C18.2542 12.8693 18.1153 12.8259 17.973 12.825Z" fill="#FF6934"/>
</g>
</svg>
