<svg width="24" height="24" viewBox="0 0 24 24" fill="none" xmlns="http://www.w3.org/2000/svg">
<g id="file-type-apib 1">
<path id="Vector" d="M13.5395 9.20022L17.1095 14.8005L17.3893 15.2205L18.2293 14.7307L17.9495 14.3107L14.3795 8.71047L14.0998 8.21997L13.2598 8.70972L13.5395 9.19947V9.20022ZM9.61928 8.63997L6.04928 14.2402L5.76953 14.6602L6.60953 15.15L6.88928 14.7997L10.4593 9.19947L10.739 8.77947L9.89978 8.21997L9.61928 8.63997Z" fill="#A0B3C1"/>
<path id="Vector_2" d="M12 9.83022C12.9821 9.82392 13.9222 9.431 14.6166 8.73656C15.3111 8.04211 15.704 7.10204 15.7103 6.11997C15.7064 5.13064 15.3164 4.18191 14.6234 3.47586C13.9304 2.76981 12.9891 2.36224 12 2.33997C11.0179 2.34626 10.0779 2.73918 9.38343 3.43363C8.68898 4.12807 8.29606 5.06814 8.28977 6.05022C8.29362 7.03954 8.68359 7.98827 9.37661 8.69432C10.0696 9.40037 11.0109 9.80794 12 9.83022ZM12 8.84997C11.2762 8.84917 10.5823 8.56129 10.0705 8.04949C9.55869 7.53769 9.27081 6.84376 9.27002 6.11997C9.27002 5.39592 9.55764 4.70154 10.0696 4.18956C10.5816 3.67759 11.276 3.38997 12 3.38997C12.7241 3.38997 13.4184 3.67759 13.9304 4.18956C14.4424 4.70154 14.73 5.39592 14.73 6.11997C14.7292 6.84376 14.4413 7.53769 13.9295 8.04949C13.4177 8.56129 12.7238 8.84917 12 8.84997ZM18.7898 21.66C19.5236 21.66 20.2409 21.4424 20.8511 21.0347C21.4612 20.627 21.9368 20.0475 22.2176 19.3696C22.4984 18.6916 22.5719 17.9456 22.4287 17.2259C22.2856 16.5062 21.9322 15.8451 21.4133 15.3262C20.8944 14.8073 20.2333 14.4539 19.5136 14.3108C18.7939 14.1676 18.0479 14.2411 17.3699 14.5219C16.692 14.8027 16.1125 15.2783 15.7048 15.8884C15.2971 16.4986 15.0795 17.2159 15.0795 17.9497C15.0858 18.9318 15.4787 19.8719 16.1732 20.5663C16.8676 21.2608 17.8077 21.6537 18.7898 21.66ZM18.7898 20.6797C18.066 20.6789 17.372 20.391 16.8602 19.8792C16.3484 19.3674 16.0606 18.6735 16.0598 17.9497C16.0598 17.2257 16.3474 16.5313 16.8594 16.0193C17.3713 15.5073 18.0657 15.2197 18.7898 15.2197C19.5138 15.2197 20.2082 15.5073 20.7202 16.0193C21.2321 16.5313 21.5198 17.2257 21.5198 17.9497C21.519 18.6735 21.2311 19.3674 20.7193 19.8792C20.2075 20.391 19.5136 20.6789 18.7898 20.6797ZM5.21027 21.66C5.70189 21.667 6.19001 21.5762 6.64623 21.3929C7.10247 21.2096 7.51771 20.9374 7.86784 20.5922C8.21797 20.247 8.496 19.8357 8.68577 19.3821C8.87554 18.9285 8.97327 18.4418 8.97327 17.9501C8.97327 17.4584 8.87554 16.9716 8.68577 16.5181C8.496 16.0645 8.21797 15.6532 7.86784 15.308C7.51771 14.9628 7.10247 14.6906 6.64623 14.5073C6.19001 14.324 5.70189 14.2332 5.21027 14.2402C4.71864 14.2332 4.23053 14.324 3.7743 14.5073C3.31807 14.6906 2.90282 14.9628 2.55269 15.308C2.20256 15.6532 1.92453 16.0645 1.73476 16.5181C1.54499 16.9716 1.44727 17.4584 1.44727 17.9501C1.44727 18.4418 1.54499 18.9285 1.73476 19.3821C1.92453 19.8357 2.20256 20.247 2.55269 20.5922C2.90282 20.9374 3.31807 21.2096 3.7743 21.3929C4.23053 21.5762 4.71864 21.667 5.21027 21.66ZM5.21027 20.6797C4.48647 20.6789 3.79254 20.391 3.28074 19.8792C2.76894 19.3674 2.48106 18.6735 2.48027 17.9497C2.49298 17.2296 2.78468 16.5426 3.29393 16.0334C3.80317 15.5241 4.4902 15.2324 5.21027 15.2197C5.93033 15.2324 6.61736 15.5241 7.1266 16.0334C7.63585 16.5426 7.92755 17.2296 7.94027 17.9497C7.93947 18.6735 7.65159 19.3674 7.13979 19.8792C6.62799 20.391 5.93406 20.6789 5.21027 20.6797Z" fill="#A0B3C1"/>
<path id="Vector_3" d="M5.2102 19.2097C5.90607 19.2097 6.4702 18.6456 6.4702 17.9497C6.4702 17.2538 5.90607 16.6897 5.2102 16.6897C4.51432 16.6897 3.9502 17.2538 3.9502 17.9497C3.9502 18.6456 4.51432 19.2097 5.2102 19.2097Z" fill="#5E9CFF"/>
</g>
</svg>
