<svg width="30" height="30" viewBox="0 0 30 30" fill="none" xmlns="http://www.w3.org/2000/svg">
<g id="google 2" clip-path="url(#clip0_35_6459)">
<g id="Group">
<g id="svg_5">
<path id="svg_1" d="M29.5983 12.1982H28.405V12.1368H15.0717V18.0627H23.4442C22.2228 21.5123 18.9405 23.9886 15.0717 23.9886C10.1628 23.9886 6.18276 20.0086 6.18276 15.0997C6.18276 10.1908 10.1628 6.21084 15.0717 6.21084C17.3376 6.21084 19.3991 7.06565 20.9687 8.46195L25.1591 4.27158C22.5131 1.80565 18.9739 0.284912 15.0717 0.284912C6.89017 0.284912 0.256836 6.91825 0.256836 15.0997C0.256836 23.2812 6.89017 29.9145 15.0717 29.9145C23.2531 29.9145 29.8865 23.2812 29.8865 15.0997C29.8865 14.1064 29.7842 13.1368 29.5983 12.1982Z" fill="#FFC107"/>
<path id="svg_2" d="M1.96484 8.20417L6.83225 11.7738C8.14929 8.51306 11.3389 6.21084 15.0715 6.21084C17.3374 6.21084 19.3989 7.06565 20.9685 8.46195L25.1589 4.27158C22.513 1.80565 18.9737 0.284912 15.0715 0.284912C9.38114 0.284912 4.44633 3.4975 1.96484 8.20417Z" fill="#FF3D00"/>
<path id="svg_3" d="M15.0717 29.9145C18.8984 29.9145 22.3754 28.4501 25.0043 26.0686L20.4191 22.1886C18.8817 23.3578 17.0032 23.9901 15.0717 23.9886C11.2184 23.9886 7.94652 21.5316 6.71392 18.1027L1.88281 21.8249C4.33466 26.6227 9.31392 29.9145 15.0717 29.9145Z" fill="#4CAF50"/>
<path id="svg_4" d="M29.7405 12.1983H28.5472V12.1368H15.2139V18.0627H23.5865C23.0022 19.7045 21.9497 21.1391 20.5591 22.1894L20.5613 22.1879L25.1465 26.0679C24.822 26.3627 30.0287 22.5071 30.0287 15.0997C30.0287 14.1064 29.9265 13.1368 29.7405 12.1983Z" fill="#1976D2"/>
</g>
</g>
</g>
<defs>
<clipPath id="clip0_35_6459">
<rect width="30" height="30" fill="white"/>
</clipPath>
</defs>
</svg>
