<svg width="24" height="24" viewBox="0 0 24 24" fill="none" xmlns="http://www.w3.org/2000/svg">
<g id="notification-bell-svgrepo-com 1">
<path id="Vector" d="M12.0002 4.69566C10.7055 4.69566 9.65234 3.64247 9.65234 2.34783C9.65234 1.05319 10.7055 0 12.0002 0C13.2948 0 14.348 1.05319 14.348 2.34783C14.348 3.64247 13.2948 4.69566 12.0002 4.69566ZM12.0002 1.5652C11.5691 1.5652 11.2175 1.91677 11.2175 2.34783C11.2175 2.77889 11.5691 3.13045 12.0002 3.13045C12.4312 3.13045 12.7828 2.77889 12.7828 2.34783C12.7828 1.91677 12.4312 1.5652 12.0002 1.5652Z" fill="#FFAA00"/>
<path id="Vector_2" d="M12 0V1.56534C12.431 1.56548 12.7823 1.91691 12.7823 2.34783C12.7823 2.77875 12.431 3.13017 12 3.13031V4.69566C13.2946 4.69547 14.3475 3.64242 14.3475 2.34783C14.3475 1.05323 13.2946 0.0001875 12 0Z" fill="#F28D00"/>
<path id="Vector_3" d="M11.9999 24C9.84168 24 8.08691 22.2452 8.08691 20.0869C8.08691 19.6544 8.43693 19.3043 8.86954 19.3043H15.1304C15.563 19.3043 15.913 19.6543 15.913 20.0869C15.913 22.2452 14.1582 24 11.9999 24Z" fill="#FFAA00"/>
<path id="Vector_4" d="M15.1302 19.3043H12V24C14.1582 23.9998 15.9128 22.2451 15.9128 20.0869C15.9127 19.6543 15.5627 19.3043 15.1302 19.3043Z" fill="#F28D00"/>
<path id="Vector_5" d="M20.6087 16.3178V11.7391C20.6083 6.98435 16.7548 3.1309 12.0001 3.13043C7.2453 3.1309 3.39184 6.98435 3.39137 11.7391V16.3178C2.48153 16.6413 1.8265 17.5006 1.82617 18.5217C1.82664 19.8186 2.87706 20.869 4.174 20.8694H19.8262C21.1231 20.869 22.1735 19.8186 22.174 18.5217C22.1736 17.5006 21.5186 16.6413 20.6087 16.3178Z" fill="#FFDA44"/>
<path id="Vector_6" d="M20.6087 16.3178V11.7391C20.6082 6.98435 16.7548 3.1309 12 3.13043V20.8694H19.8261C21.123 20.869 22.1735 19.8186 22.1739 18.5217C22.1736 17.5006 21.5186 16.6413 20.6087 16.3178Z" fill="#FFAA00"/>
<path id="Vector_7" d="M7.30411 12.5217C6.87155 12.5217 6.52148 12.1717 6.52148 11.7391C6.52148 9.53493 7.8345 7.55395 9.86747 6.69342C10.2634 6.52528 10.725 6.7087 10.8931 7.10761C11.0628 7.50651 10.8763 7.96514 10.4789 8.13323C9.02522 8.74926 8.08673 10.1647 8.08673 11.7391C8.08673 12.1717 7.73667 12.5217 7.30411 12.5217Z" fill="#FFF3DB"/>
</g>
</svg>
