<svg width="24" height="24" viewBox="0 0 24 24" fill="none" xmlns="http://www.w3.org/2000/svg">
<g id="mind-map 1">
<path id="Vector" d="M19.7002 11.5L19.3002 9.5L13.0002 10.8V4H11.0002V10.15L4.0502 5.65L2.9502 7.35L10.5502 12.25L4.7002 19.9L6.3002 21.1L11.9502 13.7L16.1502 20.05L17.8502 18.95L13.6502 12.7L19.7002 11.5Z" fill="#CFD8DC"/>
<path id="Vector_2" d="M12 15.5C13.933 15.5 15.5 13.933 15.5 12C15.5 10.067 13.933 8.5 12 8.5C10.067 8.5 8.5 10.067 8.5 12C8.5 13.933 10.067 15.5 12 15.5Z" fill="#3F51B5"/>
<g id="Group">
<path id="Vector_3" d="M12 6.5C13.3807 6.5 14.5 5.38071 14.5 4C14.5 2.61929 13.3807 1.5 12 1.5C10.6193 1.5 9.5 2.61929 9.5 4C9.5 5.38071 10.6193 6.5 12 6.5Z" fill="#00BCD4"/>
<path id="Vector_4" d="M19.5 13C20.8807 13 22 11.8807 22 10.5C22 9.11929 20.8807 8 19.5 8C18.1193 8 17 9.11929 17 10.5C17 11.8807 18.1193 13 19.5 13Z" fill="#00BCD4"/>
<path id="Vector_5" d="M3.5 9C4.88071 9 6 7.88071 6 6.5C6 5.11929 4.88071 4 3.5 4C2.11929 4 1 5.11929 1 6.5C1 7.88071 2.11929 9 3.5 9Z" fill="#00BCD4"/>
<path id="Vector_6" d="M5.5 23C6.88071 23 8 21.8807 8 20.5C8 19.1193 6.88071 18 5.5 18C4.11929 18 3 19.1193 3 20.5C3 21.8807 4.11929 23 5.5 23Z" fill="#00BCD4"/>
<path id="Vector_7" d="M17 22C18.3807 22 19.5 20.8807 19.5 19.5C19.5 18.1193 18.3807 17 17 17C15.6193 17 14.5 18.1193 14.5 19.5C14.5 20.8807 15.6193 22 17 22Z" fill="#00BCD4"/>
</g>
</g>
</svg>
